<svg width="1500" height="300" viewBox="0 0 1500 300" fill="none" xmlns="http://www.w3.org/2000/svg">
<g clip-path="url(#clip0_4_31)">
<path d="M1500 0H0V300H1500V0Z" fill="url(#paint0_linear_4_31)"/>
<g filter="url(#filter0_f_4_31)">
<path d="M185 50L188 64L202 67L188 70L185 84L182 70L168 67L182 64L185 50Z" fill="#FFD700"/>
<path d="M238 80L239.5 86L246 87.5L239.5 89L238 95L236.5 89L230 87.5L236.5 86L238 80Z" fill="#FFD700"/>
<path d="M257 114L258.5 120L265 121.5L258.5 123L257 129L255.5 123L249 121.5L255.5 120L257 114Z" fill="#FFD700"/>
<path d="M233 165L234.5 171L241 172.5L234.5 174L233 180L231.5 174L225 172.5L231.5 171L233 165Z" fill="#FFD700"/>
<path d="M118 150L119.5 156L126 157.5L119.5 159L118 165L116.5 159L110 157.5L116.5 156L118 150Z" fill="#FFD700"/>
<path d="M98 100L99.5 106L106 107.5L99.5 109L98 115L96.5 109L90 107.5L96.5 106L98 100Z" fill="#FFD700"/>
<path d="M132 74L133.5 80L140 81.5L133.5 83L132 89L130.5 83L124 81.5L130.5 80L132 74Z" fill="#FFD700"/>
<path d="M222 210L223.5 216L230 217.5L223.5 219L222 225L220.5 219L214 217.5L220.5 216L222 210Z" fill="#FFD700"/>
</g>
<g filter="url(#filter1_d_4_31)">
<path d="M185 50L188 64L202 67L188 70L185 84L182 70L168 67L182 64L185 50Z" fill="#FFD700"/>
<path d="M238 80L239.5 86L246 87.5L239.5 89L238 95L236.5 89L230 87.5L236.5 86L238 80Z" fill="#FFD700"/>
<path d="M257 114L258.5 120L265 121.5L258.5 123L257 129L255.5 123L249 121.5L255.5 120L257 114Z" fill="#FFD700"/>
<path d="M233 165L234.5 171L241 172.5L234.5 174L233 180L231.5 174L225 172.5L231.5 171L233 165Z" fill="#FFD700"/>
<path d="M118 150L119.5 156L126 157.5L119.5 159L118 165L116.5 159L110 157.5L116.5 156L118 150Z" fill="#FFD700"/>
<path d="M98 100L99.5 106L106 107.5L99.5 109L98 115L96.5 109L90 107.5L96.5 106L98 100Z" fill="#FFD700"/>
<path d="M132 74L133.5 80L140 81.5L133.5 83L132 89L130.5 83L124 81.5L130.5 80L132 74Z" fill="#FFD700"/>
<path d="M222 210L223.5 216L230 217.5L223.5 219L222 225L220.5 219L214 217.5L220.5 216L222 210Z" fill="#FFD700"/>
</g>
<path d="M110 92C96.6667 92 90 98.6667 90 112V127C90 135.667 85 140 75 140C85 140 90 144.333 90 153V168C90 181.333 96.6667 188 110 188" stroke="white" stroke-width="16" stroke-linecap="round" stroke-linejoin="round"/>
<path d="M246 92C259.333 92 266 98.6667 266 112V127C266 135.667 271 140 281 140C271 140 266 144.333 266 153V168C266 181.333 259.333 188 246 188" stroke="white" stroke-width="16" stroke-linecap="round" stroke-linejoin="round"/>
<g filter="url(#filter2_f_4_31)">
<path d="M1150 102L1153 115L1166 118L1153 121L1150 134L1147 121L1134 118L1147 115L1150 102Z" fill="#FFD700"/>
<path d="M1100 162L1102 172L1112 174L1102 176L1100 186L1098 176L1088 174L1098 172L1100 162Z" fill="#FFD700"/>
<path d="M1180 222L1181.5 228L1188 229.5L1181.5 231L1180 237L1178.5 231L1172 229.5L1178.5 228L1180 222Z" fill="#FFD700"/>
</g>
<path d="M178 185C202.853 185 223 164.853 223 140C223 115.147 202.853 95 178 95C153.147 95 133 115.147 133 140C133 164.853 153.147 185 178 185Z" fill="#4CAF50"/>
<path d="M155 140L170 155L201 124" stroke="white" stroke-width="11" stroke-linecap="round" stroke-linejoin="round"/>
<path d="M395.219 109.562V125H385.125V80.1875H400.938C412.229 80.1875 417.875 84.9479 417.875 94.4688C417.875 98.9688 416.25 102.615 413 105.406C409.771 108.177 405.448 109.562 400.031 109.562H395.219ZM395.219 87.9375V101.906H399.188C404.562 101.906 407.25 99.5521 407.25 94.8438C407.25 90.2396 404.562 87.9375 399.188 87.9375H395.219ZM444.344 101.906C443.156 101.26 441.771 100.938 440.188 100.938C438.042 100.938 436.365 101.729 435.156 103.312C433.948 104.875 433.344 107.01 433.344 109.719V125H423.469V93H433.344V98.9375H433.469C435.031 94.6042 437.844 92.4375 441.906 92.4375C442.948 92.4375 443.76 92.5625 444.344 92.8125V101.906ZM463.969 125.781C458.635 125.781 454.438 124.292 451.375 121.312C448.333 118.312 446.812 114.25 446.812 109.125C446.812 103.833 448.396 99.6979 451.562 96.7188C454.729 93.7188 459.01 92.2188 464.406 92.2188C469.719 92.2188 473.885 93.7188 476.906 96.7188C479.927 99.6979 481.438 103.646 481.438 108.562C481.438 113.875 479.875 118.073 476.75 121.156C473.646 124.24 469.385 125.781 463.969 125.781ZM464.219 99.7812C461.885 99.7812 460.073 100.583 458.781 102.188C457.49 103.792 456.844 106.062 456.844 109C456.844 115.146 459.323 118.219 464.281 118.219C469.01 118.219 471.375 115.062 471.375 108.75C471.375 102.771 468.99 99.7812 464.219 99.7812ZM519.219 121.344C519.219 127.281 517.5 131.875 514.062 135.125C510.625 138.396 505.646 140.031 499.125 140.031C494.812 140.031 491.396 139.417 488.875 138.188V129.875C492.167 131.792 495.49 132.75 498.844 132.75C502.177 132.75 504.76 131.865 506.594 130.094C508.427 128.344 509.344 125.958 509.344 122.938V120.406H509.219C506.969 123.99 503.646 125.781 499.25 125.781C495.167 125.781 491.927 124.344 489.531 121.469C487.135 118.594 485.938 114.74 485.938 109.906C485.938 104.49 487.271 100.188 489.938 97C492.604 93.8125 496.115 92.2188 500.469 92.2188C504.365 92.2188 507.281 93.7188 509.219 96.7188H509.344V93H519.219V121.344ZM509.469 109.625V107.094C509.469 105.073 508.865 103.354 507.656 101.938C506.469 100.5 504.917 99.7812 503 99.7812C500.812 99.7812 499.094 100.635 497.844 102.344C496.594 104.052 495.969 106.458 495.969 109.562C495.969 112.229 496.562 114.344 497.75 115.906C498.938 117.448 500.562 118.219 502.625 118.219C504.667 118.219 506.312 117.438 507.562 115.875C508.833 114.292 509.469 112.208 509.469 109.625ZM548.344 101.906C547.156 101.26 545.771 100.938 544.188 100.938C542.042 100.938 540.365 101.729 539.156 103.312C537.948 104.875 537.344 107.01 537.344 109.719V125H527.469V93H537.344V98.9375H537.469C539.031 94.6042 541.844 92.4375 545.906 92.4375C546.948 92.4375 547.76 92.5625 548.344 92.8125V101.906ZM579.594 125H570.25V120.406H570.125C567.979 123.99 564.802 125.781 560.594 125.781C557.49 125.781 555.042 124.906 553.25 123.156C551.479 121.385 550.594 119.031 550.594 116.094C550.594 109.885 554.271 106.302 561.625 105.344L570.312 104.188C570.312 100.688 568.417 98.9375 564.625 98.9375C560.812 98.9375 557.188 100.073 553.75 102.344V94.9062C555.125 94.1979 557 93.5729 559.375 93.0312C561.771 92.4896 563.948 92.2188 565.906 92.2188C575.031 92.2188 579.594 96.7708 579.594 105.875V125ZM570.312 112V109.844L564.5 110.594C561.292 111.01 559.688 112.458 559.688 114.938C559.688 116.062 560.073 116.99 560.844 117.719C561.635 118.427 562.698 118.781 564.031 118.781C565.885 118.781 567.396 118.146 568.562 116.875C569.729 115.583 570.312 113.958 570.312 112ZM638.219 125H628.375V106.75C628.375 102.104 626.667 99.7812 623.25 99.7812C621.625 99.7812 620.302 100.479 619.281 101.875C618.26 103.271 617.75 105.01 617.75 107.094V125H607.875V106.562C607.875 102.042 606.198 99.7812 602.844 99.7812C601.156 99.7812 599.802 100.448 598.781 101.781C597.781 103.115 597.281 104.927 597.281 107.219V125H587.406V93H597.281V98H597.406C598.427 96.2917 599.854 94.9062 601.688 93.8438C603.542 92.7604 605.562 92.2188 607.75 92.2188C612.271 92.2188 615.365 94.2083 617.031 98.1875C619.469 94.2083 623.052 92.2188 627.781 92.2188C634.74 92.2188 638.219 96.5104 638.219 105.094V125ZM696.844 125H687V106.75C687 102.104 685.292 99.7812 681.875 99.7812C680.25 99.7812 678.927 100.479 677.906 101.875C676.885 103.271 676.375 105.01 676.375 107.094V125H666.5V106.562C666.5 102.042 664.823 99.7812 661.469 99.7812C659.781 99.7812 658.427 100.448 657.406 101.781C656.406 103.115 655.906 104.927 655.906 107.219V125H646.031V93H655.906V98H656.031C657.052 96.2917 658.479 94.9062 660.312 93.8438C662.167 92.7604 664.188 92.2188 666.375 92.2188C670.896 92.2188 673.99 94.2083 675.656 98.1875C678.094 94.2083 681.677 92.2188 686.406 92.2188C693.365 92.2188 696.844 96.5104 696.844 105.094V125ZM733.406 111.812H712.531C712.865 116.458 715.792 118.781 721.312 118.781C724.833 118.781 727.927 117.948 730.594 116.281V123.406C727.635 124.99 723.792 125.781 719.062 125.781C713.896 125.781 709.885 124.354 707.031 121.5C704.177 118.625 702.75 114.625 702.75 109.5C702.75 104.188 704.292 99.9792 707.375 96.875C710.458 93.7708 714.25 92.2188 718.75 92.2188C723.417 92.2188 727.021 93.6042 729.562 96.375C732.125 99.1458 733.406 102.906 733.406 107.656V111.812ZM724.25 105.75C724.25 101.167 722.396 98.875 718.688 98.875C717.104 98.875 715.729 99.5312 714.562 100.844C713.417 102.156 712.719 103.792 712.469 105.75H724.25ZM760.156 101.906C758.969 101.26 757.583 100.938 756 100.938C753.854 100.938 752.177 101.729 750.969 103.312C749.76 104.875 749.156 107.01 749.156 109.719V125H739.281V93H749.156V98.9375H749.281C750.844 94.6042 753.656 92.4375 757.719 92.4375C758.76 92.4375 759.573 92.5625 760.156 92.8125V101.906ZM763.062 124.156V116.156C764.688 117.135 766.302 117.865 767.906 118.344C769.531 118.823 771.062 119.062 772.5 119.062C774.25 119.062 775.625 118.823 776.625 118.344C777.646 117.865 778.156 117.135 778.156 116.156C778.156 115.531 777.927 115.01 777.469 114.594C777.01 114.177 776.417 113.812 775.688 113.5C774.979 113.188 774.198 112.906 773.344 112.656C772.49 112.406 771.667 112.125 770.875 111.812C769.604 111.333 768.479 110.823 767.5 110.281C766.542 109.719 765.729 109.073 765.062 108.344C764.417 107.615 763.917 106.771 763.562 105.812C763.229 104.854 763.062 103.719 763.062 102.406C763.062 100.615 763.448 99.0729 764.219 97.7812C765.01 96.4896 766.052 95.4375 767.344 94.625C768.656 93.7917 770.146 93.1875 771.812 92.8125C773.5 92.4167 775.25 92.2188 777.062 92.2188C778.479 92.2188 779.917 92.3333 781.375 92.5625C782.833 92.7708 784.271 93.0833 785.688 93.5V101.125C784.438 100.396 783.094 99.8542 781.656 99.5C780.24 99.125 778.844 98.9375 777.469 98.9375C776.823 98.9375 776.208 99 775.625 99.125C775.062 99.2292 774.562 99.3958 774.125 99.625C773.688 99.8333 773.344 100.115 773.094 100.469C772.844 100.802 772.719 101.188 772.719 101.625C772.719 102.208 772.906 102.708 773.281 103.125C773.656 103.542 774.146 103.906 774.75 104.219C775.354 104.51 776.021 104.781 776.75 105.031C777.5 105.26 778.24 105.5 778.969 105.75C780.281 106.208 781.469 106.708 782.531 107.25C783.594 107.792 784.5 108.427 785.25 109.156C786.021 109.885 786.604 110.74 787 111.719C787.417 112.698 787.625 113.865 787.625 115.219C787.625 117.115 787.208 118.74 786.375 120.094C785.562 121.427 784.469 122.521 783.094 123.375C781.74 124.208 780.167 124.812 778.375 125.188C776.604 125.583 774.76 125.781 772.844 125.781C769.323 125.781 766.062 125.24 763.062 124.156ZM851.406 125H840.406L837.219 115.031H821.281L818.125 125H807.188L823.5 80.1875H835.469L851.406 125ZM834.906 107.281L830.094 92.2188C829.74 91.0938 829.49 89.75 829.344 88.1875H829.094C828.99 89.5 828.729 90.8021 828.312 92.0938L823.438 107.281H834.906ZM876.906 101.906C875.719 101.26 874.333 100.938 872.75 100.938C870.604 100.938 868.927 101.729 867.719 103.312C866.51 104.875 865.906 107.01 865.906 109.719V125H856.031V93H865.906V98.9375H866.031C867.594 94.6042 870.406 92.4375 874.469 92.4375C875.51 92.4375 876.323 92.5625 876.906 92.8125V101.906ZM910.031 111.812H889.156C889.49 116.458 892.417 118.781 897.938 118.781C901.458 118.781 904.552 117.948 907.219 116.281V123.406C904.26 124.99 900.417 125.781 895.688 125.781C890.521 125.781 886.51 124.354 883.656 121.5C880.802 118.625 879.375 114.625 879.375 109.5C879.375 104.188 880.917 99.9792 884 96.875C887.083 93.7708 890.875 92.2188 895.375 92.2188C900.042 92.2188 903.646 93.6042 906.188 96.375C908.75 99.1458 910.031 102.906 910.031 107.656V111.812ZM900.875 105.75C900.875 101.167 899.021 98.875 895.312 98.875C893.729 98.875 892.354 99.5312 891.188 100.844C890.042 102.156 889.344 103.792 889.094 105.75H900.875ZM944.656 109.562V125H934.562V80.1875H950.375C961.667 80.1875 967.312 84.9479 967.312 94.4688C967.312 98.9688 965.688 102.615 962.438 105.406C959.208 108.177 954.885 109.562 949.469 109.562H944.656ZM944.656 87.9375V101.906H948.625C954 101.906 956.688 99.5521 956.688 94.8438C956.688 90.2396 954 87.9375 948.625 87.9375H944.656ZM999.719 111.812H978.844C979.177 116.458 982.104 118.781 987.625 118.781C991.146 118.781 994.24 117.948 996.906 116.281V123.406C993.948 124.99 990.104 125.781 985.375 125.781C980.208 125.781 976.198 124.354 973.344 121.5C970.49 118.625 969.062 114.625 969.062 109.5C969.062 104.188 970.604 99.9792 973.688 96.875C976.771 93.7708 980.562 92.2188 985.062 92.2188C989.729 92.2188 993.333 93.6042 995.875 96.375C998.438 99.1458 999.719 102.906 999.719 107.656V111.812ZM990.562 105.75C990.562 101.167 988.708 98.875 985 98.875C983.417 98.875 982.042 99.5312 980.875 100.844C979.729 102.156 979.031 103.792 978.781 105.75H990.562ZM1020.84 125.781C1015.51 125.781 1011.31 124.292 1008.25 121.312C1005.21 118.312 1003.69 114.25 1003.69 109.125C1003.69 103.833 1005.27 99.6979 1008.44 96.7188C1011.6 93.7188 1015.89 92.2188 1021.28 92.2188C1026.59 92.2188 1030.76 93.7188 1033.78 96.7188C1036.8 99.6979 1038.31 103.646 1038.31 108.562C1038.31 113.875 1036.75 118.073 1033.62 121.156C1030.52 124.24 1026.26 125.781 1020.84 125.781ZM1021.09 99.7812C1018.76 99.7812 1016.95 100.583 1015.66 102.188C1014.36 103.792 1013.72 106.062 1013.72 109C1013.72 115.146 1016.2 118.219 1021.16 118.219C1025.89 118.219 1028.25 115.062 1028.25 108.75C1028.25 102.771 1025.86 99.7812 1021.09 99.7812ZM1054.72 121.281H1054.59V139.719H1044.72V93H1054.59V97.8125H1054.72C1057.16 94.0833 1060.58 92.2188 1065 92.2188C1069.15 92.2188 1072.34 93.6458 1074.59 96.5C1076.86 99.3333 1078 103.198 1078 108.094C1078 113.427 1076.68 117.708 1074.03 120.938C1071.41 124.167 1067.91 125.781 1063.53 125.781C1059.68 125.781 1056.74 124.281 1054.72 121.281ZM1054.44 108.156V110.719C1054.44 112.927 1055.02 114.729 1056.19 116.125C1057.35 117.521 1058.89 118.219 1060.78 118.219C1063.03 118.219 1064.77 117.354 1066 115.625C1067.25 113.875 1067.88 111.406 1067.88 108.219C1067.88 102.594 1065.69 99.7812 1061.31 99.7812C1059.29 99.7812 1057.64 100.552 1056.34 102.094C1055.07 103.615 1054.44 105.635 1054.44 108.156ZM1094.28 125H1084.41V77.625H1094.28V125ZM1131.34 111.812H1110.47C1110.8 116.458 1113.73 118.781 1119.25 118.781C1122.77 118.781 1125.86 117.948 1128.53 116.281V123.406C1125.57 124.99 1121.73 125.781 1117 125.781C1111.83 125.781 1107.82 124.354 1104.97 121.5C1102.11 118.625 1100.69 114.625 1100.69 109.5C1100.69 104.188 1102.23 99.9792 1105.31 96.875C1108.4 93.7708 1112.19 92.2188 1116.69 92.2188C1121.35 92.2188 1124.96 93.6042 1127.5 96.375C1130.06 99.1458 1131.34 102.906 1131.34 107.656V111.812ZM1122.19 105.75C1122.19 101.167 1120.33 98.875 1116.62 98.875C1115.04 98.875 1113.67 99.5312 1112.5 100.844C1111.35 102.156 1110.66 103.792 1110.41 105.75H1122.19ZM1187.34 88.4062H1174.56V125H1164.44V88.4062H1151.72V80.1875H1187.34V88.4062ZM1201.91 125.781C1196.57 125.781 1192.38 124.292 1189.31 121.312C1186.27 118.312 1184.75 114.25 1184.75 109.125C1184.75 103.833 1186.33 99.6979 1189.5 96.7188C1192.67 93.7188 1196.95 92.2188 1202.34 92.2188C1207.66 92.2188 1211.82 93.7188 1214.84 96.7188C1217.86 99.6979 1219.38 103.646 1219.38 108.562C1219.38 113.875 1217.81 118.073 1214.69 121.156C1211.58 124.24 1207.32 125.781 1201.91 125.781ZM1202.16 99.7812C1199.82 99.7812 1198.01 100.583 1196.72 102.188C1195.43 103.792 1194.78 106.062 1194.78 109C1194.78 115.146 1197.26 118.219 1202.22 118.219C1206.95 118.219 1209.31 115.062 1209.31 108.75C1209.31 102.771 1206.93 99.7812 1202.16 99.7812ZM1241.03 125.781C1235.7 125.781 1231.5 124.292 1228.44 121.312C1225.4 118.312 1223.88 114.25 1223.88 109.125C1223.88 103.833 1225.46 99.6979 1228.62 96.7188C1231.79 93.7188 1236.07 92.2188 1241.47 92.2188C1246.78 92.2188 1250.95 93.7188 1253.97 96.7188C1256.99 99.6979 1258.5 103.646 1258.5 108.562C1258.5 113.875 1256.94 118.073 1253.81 121.156C1250.71 124.24 1246.45 125.781 1241.03 125.781ZM1241.28 99.7812C1238.95 99.7812 1237.14 100.583 1235.84 102.188C1234.55 103.792 1233.91 106.062 1233.91 109C1233.91 115.146 1236.39 118.219 1241.34 118.219C1246.07 118.219 1248.44 115.062 1248.44 108.75C1248.44 102.771 1246.05 99.7812 1241.28 99.7812Z" fill="white"/>
<path d="M398.188 182.062C396.531 182.938 394.469 183.375 392 183.375C388.812 183.375 386.26 182.349 384.344 180.297C382.427 178.245 381.469 175.552 381.469 172.219C381.469 168.635 382.547 165.74 384.703 163.531C386.859 161.323 389.594 160.219 392.906 160.219C395.031 160.219 396.792 160.526 398.188 161.141V163.938C396.583 163.042 394.812 162.594 392.875 162.594C390.302 162.594 388.214 163.453 386.609 165.172C385.016 166.891 384.219 169.188 384.219 172.062C384.219 174.792 384.964 176.969 386.453 178.594C387.953 180.208 389.917 181.016 392.344 181.016C394.594 181.016 396.542 180.516 398.188 179.516V182.062ZM415.266 175.641H403.969C404.01 177.422 404.49 178.797 405.406 179.766C406.323 180.734 407.583 181.219 409.188 181.219C410.99 181.219 412.646 180.625 414.156 179.438V181.844C412.75 182.865 410.891 183.375 408.578 183.375C406.318 183.375 404.542 182.651 403.25 181.203C401.958 179.745 401.312 177.698 401.312 175.062C401.312 172.573 402.016 170.547 403.422 168.984C404.839 167.411 406.594 166.625 408.688 166.625C410.781 166.625 412.401 167.302 413.547 168.656C414.693 170.01 415.266 171.891 415.266 174.297V175.641ZM412.641 173.469C412.63 171.99 412.271 170.839 411.562 170.016C410.865 169.193 409.891 168.781 408.641 168.781C407.432 168.781 406.406 169.214 405.562 170.078C404.719 170.943 404.198 172.073 404 173.469H412.641ZM421.719 183H419.156V159.312H421.719V183ZM439.766 175.641H428.469C428.51 177.422 428.99 178.797 429.906 179.766C430.823 180.734 432.083 181.219 433.688 181.219C435.49 181.219 437.146 180.625 438.656 179.438V181.844C437.25 182.865 435.391 183.375 433.078 183.375C430.818 183.375 429.042 182.651 427.75 181.203C426.458 179.745 425.812 177.698 425.812 175.062C425.812 172.573 426.516 170.547 427.922 168.984C429.339 167.411 431.094 166.625 433.188 166.625C435.281 166.625 436.901 167.302 438.047 168.656C439.193 170.01 439.766 171.891 439.766 174.297V175.641ZM437.141 173.469C437.13 171.99 436.771 170.839 436.062 170.016C435.365 169.193 434.391 168.781 433.141 168.781C431.932 168.781 430.906 169.214 430.062 170.078C429.219 170.943 428.698 172.073 428.5 173.469H437.141ZM446.281 180.688H446.219V183H443.656V159.312H446.219V169.812H446.281C447.542 167.688 449.385 166.625 451.812 166.625C453.865 166.625 455.469 167.344 456.625 168.781C457.792 170.208 458.375 172.125 458.375 174.531C458.375 177.208 457.724 179.354 456.422 180.969C455.12 182.573 453.339 183.375 451.078 183.375C448.964 183.375 447.365 182.479 446.281 180.688ZM446.219 174.234V176.469C446.219 177.792 446.646 178.917 447.5 179.844C448.365 180.76 449.458 181.219 450.781 181.219C452.333 181.219 453.547 180.625 454.422 179.438C455.307 178.25 455.75 176.599 455.75 174.484C455.75 172.703 455.339 171.307 454.516 170.297C453.693 169.286 452.578 168.781 451.172 168.781C449.682 168.781 448.484 169.302 447.578 170.344C446.672 171.375 446.219 172.672 446.219 174.234ZM470.812 169.594C470.365 169.25 469.719 169.078 468.875 169.078C467.781 169.078 466.865 169.594 466.125 170.625C465.396 171.656 465.031 173.062 465.031 174.844V183H462.469V167H465.031V170.297H465.094C465.458 169.172 466.016 168.297 466.766 167.672C467.516 167.036 468.354 166.719 469.281 166.719C469.948 166.719 470.458 166.792 470.812 166.938V169.594ZM485.047 183H482.484V180.5H482.422C481.307 182.417 479.667 183.375 477.5 183.375C475.906 183.375 474.656 182.953 473.75 182.109C472.854 181.266 472.406 180.146 472.406 178.75C472.406 175.76 474.167 174.021 477.688 173.531L482.484 172.859C482.484 170.141 481.385 168.781 479.188 168.781C477.26 168.781 475.521 169.438 473.969 170.75V168.125C475.542 167.125 477.354 166.625 479.406 166.625C483.167 166.625 485.047 168.615 485.047 172.594V183ZM482.484 174.906L478.625 175.438C477.438 175.604 476.542 175.901 475.938 176.328C475.333 176.745 475.031 177.49 475.031 178.562C475.031 179.344 475.307 179.984 475.859 180.484C476.422 180.974 477.167 181.219 478.094 181.219C479.365 181.219 480.411 180.776 481.234 179.891C482.068 178.995 482.484 177.865 482.484 176.5V174.906ZM497.297 182.844C496.693 183.177 495.896 183.344 494.906 183.344C492.104 183.344 490.703 181.781 490.703 178.656V169.188H487.953V167H490.703V163.094L493.266 162.266V167H497.297V169.188H493.266V178.203C493.266 179.276 493.448 180.042 493.812 180.5C494.177 180.958 494.781 181.188 495.625 181.188C496.271 181.188 496.828 181.01 497.297 180.656V182.844ZM513.578 175.641H502.281C502.323 177.422 502.802 178.797 503.719 179.766C504.635 180.734 505.896 181.219 507.5 181.219C509.302 181.219 510.958 180.625 512.469 179.438V181.844C511.062 182.865 509.203 183.375 506.891 183.375C504.63 183.375 502.854 182.651 501.562 181.203C500.271 179.745 499.625 177.698 499.625 175.062C499.625 172.573 500.328 170.547 501.734 168.984C503.151 167.411 504.906 166.625 507 166.625C509.094 166.625 510.714 167.302 511.859 168.656C513.005 170.01 513.578 171.891 513.578 174.297V175.641ZM510.953 173.469C510.943 171.99 510.583 170.839 509.875 170.016C509.177 169.193 508.203 168.781 506.953 168.781C505.745 168.781 504.719 169.214 503.875 170.078C503.031 170.943 502.51 172.073 502.312 173.469H510.953ZM538.984 167L531.625 185.562C530.312 188.875 528.469 190.531 526.094 190.531C525.427 190.531 524.87 190.464 524.422 190.328V188.031C524.974 188.219 525.479 188.312 525.938 188.312C527.229 188.312 528.198 187.542 528.844 186L530.125 182.969L523.875 167H526.719L531.047 179.312C531.099 179.469 531.208 179.875 531.375 180.531H531.469C531.521 180.281 531.625 179.885 531.781 179.344L536.328 167H538.984ZM548.438 183.375C546.073 183.375 544.182 182.63 542.766 181.141C541.359 179.641 540.656 177.656 540.656 175.188C540.656 172.5 541.391 170.401 542.859 168.891C544.328 167.38 546.312 166.625 548.812 166.625C551.198 166.625 553.057 167.359 554.391 168.828C555.734 170.297 556.406 172.333 556.406 174.938C556.406 177.49 555.682 179.536 554.234 181.078C552.797 182.609 550.865 183.375 548.438 183.375ZM548.625 168.781C546.979 168.781 545.677 169.344 544.719 170.469C543.76 171.583 543.281 173.125 543.281 175.094C543.281 176.99 543.766 178.484 544.734 179.578C545.703 180.672 547 181.219 548.625 181.219C550.281 181.219 551.552 180.682 552.438 179.609C553.333 178.536 553.781 177.01 553.781 175.031C553.781 173.031 553.333 171.49 552.438 170.406C551.552 169.323 550.281 168.781 548.625 168.781ZM573.438 183H570.875V180.469H570.812C569.75 182.406 568.104 183.375 565.875 183.375C562.062 183.375 560.156 181.104 560.156 176.562V167H562.703V176.156C562.703 179.531 563.995 181.219 566.578 181.219C567.828 181.219 568.854 180.76 569.656 179.844C570.469 178.917 570.875 177.708 570.875 176.219V167H573.438V183ZM586.969 169.594C586.521 169.25 585.875 169.078 585.031 169.078C583.938 169.078 583.021 169.594 582.281 170.625C581.552 171.656 581.188 173.062 581.188 174.844V183H578.625V167H581.188V170.297H581.25C581.615 169.172 582.172 168.297 582.922 167.672C583.672 167.036 584.51 166.719 585.438 166.719C586.104 166.719 586.615 166.792 586.969 166.938V169.594ZM609.438 182.266C608.208 183.005 606.75 183.375 605.062 183.375C602.781 183.375 600.938 182.635 599.531 181.156C598.135 179.667 597.438 177.74 597.438 175.375C597.438 172.74 598.193 170.625 599.703 169.031C601.214 167.427 603.229 166.625 605.75 166.625C607.156 166.625 608.396 166.885 609.469 167.406V170.031C608.281 169.198 607.01 168.781 605.656 168.781C604.021 168.781 602.677 169.37 601.625 170.547C600.583 171.714 600.062 173.25 600.062 175.156C600.062 177.031 600.552 178.51 601.531 179.594C602.521 180.677 603.844 181.219 605.5 181.219C606.896 181.219 608.208 180.755 609.438 179.828V182.266ZM620 183.375C617.635 183.375 615.745 182.63 614.328 181.141C612.922 179.641 612.219 177.656 612.219 175.188C612.219 172.5 612.953 170.401 614.422 168.891C615.891 167.38 617.875 166.625 620.375 166.625C622.76 166.625 624.62 167.359 625.953 168.828C627.297 170.297 627.969 172.333 627.969 174.938C627.969 177.49 627.245 179.536 625.797 181.078C624.359 182.609 622.427 183.375 620 183.375ZM620.188 168.781C618.542 168.781 617.24 169.344 616.281 170.469C615.323 171.583 614.844 173.125 614.844 175.094C614.844 176.99 615.328 178.484 616.297 179.578C617.266 180.672 618.562 181.219 620.188 181.219C621.844 181.219 623.115 180.682 624 179.609C624.896 178.536 625.344 177.01 625.344 175.031C625.344 173.031 624.896 171.49 624 170.406C623.115 169.323 621.844 168.781 620.188 168.781ZM645.719 183H643.156V180.281H643.094C641.906 182.344 640.073 183.375 637.594 183.375C635.583 183.375 633.974 182.661 632.766 181.234C631.568 179.797 630.969 177.844 630.969 175.375C630.969 172.729 631.635 170.609 632.969 169.016C634.302 167.422 636.078 166.625 638.297 166.625C640.495 166.625 642.094 167.49 643.094 169.219H643.156V159.312H645.719V183ZM643.156 175.766V173.406C643.156 172.115 642.729 171.021 641.875 170.125C641.021 169.229 639.938 168.781 638.625 168.781C637.062 168.781 635.833 169.354 634.938 170.5C634.042 171.646 633.594 173.229 633.594 175.25C633.594 177.094 634.021 178.552 634.875 179.625C635.74 180.688 636.896 181.219 638.344 181.219C639.771 181.219 640.927 180.703 641.812 179.672C642.708 178.641 643.156 177.339 643.156 175.766ZM652.219 162.938C651.76 162.938 651.37 162.781 651.047 162.469C650.724 162.156 650.562 161.76 650.562 161.281C650.562 160.802 650.724 160.406 651.047 160.094C651.37 159.771 651.76 159.609 652.219 159.609C652.688 159.609 653.083 159.771 653.406 160.094C653.74 160.406 653.906 160.802 653.906 161.281C653.906 161.74 653.74 162.13 653.406 162.453C653.083 162.776 652.688 162.938 652.219 162.938ZM653.469 183H650.906V167H653.469V183ZM671.938 183H669.375V173.875C669.375 170.479 668.135 168.781 665.656 168.781C664.375 168.781 663.312 169.266 662.469 170.234C661.635 171.193 661.219 172.406 661.219 173.875V183H658.656V167H661.219V169.656H661.281C662.49 167.635 664.24 166.625 666.531 166.625C668.281 166.625 669.62 167.193 670.547 168.328C671.474 169.453 671.938 171.083 671.938 173.219V183ZM690.438 181.719C690.438 187.594 687.625 190.531 682 190.531C680.021 190.531 678.292 190.156 676.812 189.406V186.844C678.615 187.844 680.333 188.344 681.969 188.344C685.906 188.344 687.875 186.25 687.875 182.062V180.312H687.812C686.594 182.354 684.76 183.375 682.312 183.375C680.323 183.375 678.719 182.667 677.5 181.25C676.292 179.823 675.688 177.911 675.688 175.516C675.688 172.797 676.339 170.635 677.641 169.031C678.953 167.427 680.745 166.625 683.016 166.625C685.172 166.625 686.771 167.49 687.812 169.219H687.875V167H690.438V181.719ZM687.875 175.766V173.406C687.875 172.135 687.443 171.047 686.578 170.141C685.724 169.234 684.656 168.781 683.375 168.781C681.792 168.781 680.552 169.359 679.656 170.516C678.76 171.661 678.312 173.271 678.312 175.344C678.312 177.125 678.74 178.552 679.594 179.625C680.458 180.688 681.599 181.219 683.016 181.219C684.453 181.219 685.62 180.708 686.516 179.688C687.422 178.667 687.875 177.359 687.875 175.766ZM715.859 183H713.297V180.5H713.234C712.12 182.417 710.479 183.375 708.312 183.375C706.719 183.375 705.469 182.953 704.562 182.109C703.667 181.266 703.219 180.146 703.219 178.75C703.219 175.76 704.979 174.021 708.5 173.531L713.297 172.859C713.297 170.141 712.198 168.781 710 168.781C708.073 168.781 706.333 169.438 704.781 170.75V168.125C706.354 167.125 708.167 166.625 710.219 166.625C713.979 166.625 715.859 168.615 715.859 172.594V183ZM713.297 174.906L709.438 175.438C708.25 175.604 707.354 175.901 706.75 176.328C706.146 176.745 705.844 177.49 705.844 178.562C705.844 179.344 706.12 179.984 706.672 180.484C707.234 180.974 707.979 181.219 708.906 181.219C710.177 181.219 711.224 180.776 712.047 179.891C712.88 178.995 713.297 177.865 713.297 176.5V174.906ZM731.594 182.266C730.365 183.005 728.906 183.375 727.219 183.375C724.938 183.375 723.094 182.635 721.688 181.156C720.292 179.667 719.594 177.74 719.594 175.375C719.594 172.74 720.349 170.625 721.859 169.031C723.37 167.427 725.385 166.625 727.906 166.625C729.312 166.625 730.552 166.885 731.625 167.406V170.031C730.438 169.198 729.167 168.781 727.812 168.781C726.177 168.781 724.833 169.37 723.781 170.547C722.74 171.714 722.219 173.25 722.219 175.156C722.219 177.031 722.708 178.51 723.688 179.594C724.677 180.677 726 181.219 727.656 181.219C729.052 181.219 730.365 180.755 731.594 179.828V182.266ZM748.75 183H746.188V173.781C746.188 170.448 744.948 168.781 742.469 168.781C741.219 168.781 740.167 169.266 739.312 170.234C738.458 171.193 738.031 172.427 738.031 173.938V183H735.469V159.312H738.031V169.656H738.094C739.323 167.635 741.073 166.625 743.344 166.625C746.948 166.625 748.75 168.797 748.75 173.141V183ZM754.906 162.938C754.448 162.938 754.057 162.781 753.734 162.469C753.411 162.156 753.25 161.76 753.25 161.281C753.25 160.802 753.411 160.406 753.734 160.094C754.057 159.771 754.448 159.609 754.906 159.609C755.375 159.609 755.771 159.771 756.094 160.094C756.427 160.406 756.594 160.802 756.594 161.281C756.594 161.74 756.427 162.13 756.094 162.453C755.771 162.776 755.375 162.938 754.906 162.938ZM756.156 183H753.594V167H756.156V183ZM774.203 175.641H762.906C762.948 177.422 763.427 178.797 764.344 179.766C765.26 180.734 766.521 181.219 768.125 181.219C769.927 181.219 771.583 180.625 773.094 179.438V181.844C771.688 182.865 769.828 183.375 767.516 183.375C765.255 183.375 763.479 182.651 762.188 181.203C760.896 179.745 760.25 177.698 760.25 175.062C760.25 172.573 760.953 170.547 762.359 168.984C763.776 167.411 765.531 166.625 767.625 166.625C769.719 166.625 771.339 167.302 772.484 168.656C773.63 170.01 774.203 171.891 774.203 174.297V175.641ZM771.578 173.469C771.568 171.99 771.208 170.839 770.5 170.016C769.802 169.193 768.828 168.781 767.578 168.781C766.37 168.781 765.344 169.214 764.5 170.078C763.656 170.943 763.135 172.073 762.938 173.469H771.578ZM790.672 167L784.297 183H781.781L775.719 167H778.531L782.594 178.625C782.896 179.479 783.083 180.224 783.156 180.859H783.219C783.323 180.057 783.49 179.333 783.719 178.688L787.969 167H790.672ZM806.297 175.641H795C795.042 177.422 795.521 178.797 796.438 179.766C797.354 180.734 798.615 181.219 800.219 181.219C802.021 181.219 803.677 180.625 805.188 179.438V181.844C803.781 182.865 801.922 183.375 799.609 183.375C797.349 183.375 795.573 182.651 794.281 181.203C792.99 179.745 792.344 177.698 792.344 175.062C792.344 172.573 793.047 170.547 794.453 168.984C795.87 167.411 797.625 166.625 799.719 166.625C801.812 166.625 803.432 167.302 804.578 168.656C805.724 170.01 806.297 171.891 806.297 174.297V175.641ZM803.672 173.469C803.661 171.99 803.302 170.839 802.594 170.016C801.896 169.193 800.922 168.781 799.672 168.781C798.464 168.781 797.438 169.214 796.594 170.078C795.75 170.943 795.229 172.073 795.031 173.469H803.672ZM832.906 183H830.344V173.812C830.344 172.042 830.068 170.76 829.516 169.969C828.974 169.177 828.057 168.781 826.766 168.781C825.672 168.781 824.74 169.281 823.969 170.281C823.208 171.281 822.828 172.479 822.828 173.875V183H820.266V173.5C820.266 170.354 819.052 168.781 816.625 168.781C815.5 168.781 814.573 169.255 813.844 170.203C813.115 171.141 812.75 172.365 812.75 173.875V183H810.188V167H812.75V169.531H812.812C813.948 167.594 815.604 166.625 817.781 166.625C818.875 166.625 819.828 166.932 820.641 167.547C821.453 168.151 822.01 168.948 822.312 169.938C823.5 167.729 825.271 166.625 827.625 166.625C831.146 166.625 832.906 168.797 832.906 173.141V183ZM850.609 175.641H839.312C839.354 177.422 839.833 178.797 840.75 179.766C841.667 180.734 842.927 181.219 844.531 181.219C846.333 181.219 847.99 180.625 849.5 179.438V181.844C848.094 182.865 846.234 183.375 843.922 183.375C841.661 183.375 839.885 182.651 838.594 181.203C837.302 179.745 836.656 177.698 836.656 175.062C836.656 172.573 837.359 170.547 838.766 168.984C840.182 167.411 841.938 166.625 844.031 166.625C846.125 166.625 847.745 167.302 848.891 168.656C850.036 170.01 850.609 171.891 850.609 174.297V175.641ZM847.984 173.469C847.974 171.99 847.615 170.839 846.906 170.016C846.208 169.193 845.234 168.781 843.984 168.781C842.776 168.781 841.75 169.214 840.906 170.078C840.062 170.943 839.542 172.073 839.344 173.469H847.984ZM867.781 183H865.219V173.875C865.219 170.479 863.979 168.781 861.5 168.781C860.219 168.781 859.156 169.266 858.312 170.234C857.479 171.193 857.062 172.406 857.062 173.875V183H854.5V167H857.062V169.656H857.125C858.333 167.635 860.083 166.625 862.375 166.625C864.125 166.625 865.464 167.193 866.391 168.328C867.318 169.453 867.781 171.083 867.781 173.219V183ZM880.047 182.844C879.443 183.177 878.646 183.344 877.656 183.344C874.854 183.344 873.453 181.781 873.453 178.656V169.188H870.703V167H873.453V163.094L876.016 162.266V167H880.047V169.188H876.016V178.203C876.016 179.276 876.198 180.042 876.562 180.5C876.927 180.958 877.531 181.188 878.375 181.188C879.021 181.188 879.578 181.01 880.047 180.656V182.844ZM882.5 182.422V179.672C883.896 180.703 885.432 181.219 887.109 181.219C889.359 181.219 890.484 180.469 890.484 178.969C890.484 178.542 890.385 178.182 890.188 177.891C890 177.589 889.74 177.323 889.406 177.094C889.083 176.865 888.698 176.661 888.25 176.484C887.812 176.297 887.339 176.104 886.828 175.906C886.12 175.625 885.495 175.344 884.953 175.062C884.422 174.771 883.974 174.448 883.609 174.094C883.255 173.729 882.984 173.318 882.797 172.859C882.62 172.401 882.531 171.865 882.531 171.25C882.531 170.5 882.703 169.839 883.047 169.266C883.391 168.682 883.849 168.198 884.422 167.812C884.995 167.417 885.646 167.12 886.375 166.922C887.115 166.724 887.875 166.625 888.656 166.625C890.042 166.625 891.281 166.865 892.375 167.344V169.938C891.198 169.167 889.844 168.781 888.312 168.781C887.833 168.781 887.401 168.839 887.016 168.953C886.63 169.057 886.297 169.208 886.016 169.406C885.745 169.604 885.531 169.844 885.375 170.125C885.229 170.396 885.156 170.698 885.156 171.031C885.156 171.448 885.229 171.797 885.375 172.078C885.531 172.359 885.755 172.609 886.047 172.828C886.339 173.047 886.693 173.245 887.109 173.422C887.526 173.599 888 173.792 888.531 174C889.24 174.271 889.875 174.552 890.438 174.844C891 175.125 891.479 175.448 891.875 175.812C892.271 176.167 892.573 176.578 892.781 177.047C893 177.516 893.109 178.073 893.109 178.719C893.109 179.51 892.932 180.198 892.578 180.781C892.234 181.365 891.771 181.849 891.188 182.234C890.604 182.62 889.932 182.906 889.172 183.094C888.411 183.281 887.615 183.375 886.781 183.375C885.135 183.375 883.708 183.057 882.5 182.422ZM926 167L921.203 183H918.547L915.25 171.547C915.125 171.109 915.042 170.615 915 170.062H914.938C914.906 170.438 914.797 170.922 914.609 171.516L911.031 183H908.469L903.625 167H906.312L909.625 179.031C909.729 179.396 909.802 179.875 909.844 180.469H909.969C910 180.01 910.094 179.521 910.25 179L913.938 167H916.281L919.594 179.062C919.698 179.448 919.776 179.927 919.828 180.5H919.953C919.974 180.094 920.062 179.615 920.219 179.062L923.469 167H926ZM930.281 162.938C929.823 162.938 929.432 162.781 929.109 162.469C928.786 162.156 928.625 161.76 928.625 161.281C928.625 160.802 928.786 160.406 929.109 160.094C929.432 159.771 929.823 159.609 930.281 159.609C930.75 159.609 931.146 159.771 931.469 160.094C931.802 160.406 931.969 160.802 931.969 161.281C931.969 161.74 931.802 162.13 931.469 162.453C931.146 162.776 930.75 162.938 930.281 162.938ZM931.531 183H928.969V167H931.531V183ZM944.141 182.844C943.536 183.177 942.74 183.344 941.75 183.344C938.948 183.344 937.547 181.781 937.547 178.656V169.188H934.797V167H937.547V163.094L940.109 162.266V167H944.141V169.188H940.109V178.203C940.109 179.276 940.292 180.042 940.656 180.5C941.021 180.958 941.625 181.188 942.469 181.188C943.115 181.188 943.672 181.01 944.141 180.656V182.844ZM960.844 183H958.281V173.781C958.281 170.448 957.042 168.781 954.562 168.781C953.312 168.781 952.26 169.266 951.406 170.234C950.552 171.193 950.125 172.427 950.125 173.938V183H947.562V159.312H950.125V169.656H950.188C951.417 167.635 953.167 166.625 955.438 166.625C959.042 166.625 960.844 168.797 960.844 173.141V183ZM977.094 180.688H977.031V190.359H974.469V167H977.031V169.812H977.094C978.354 167.688 980.198 166.625 982.625 166.625C984.688 166.625 986.297 167.344 987.453 168.781C988.609 170.208 989.188 172.125 989.188 174.531C989.188 177.208 988.536 179.354 987.234 180.969C985.932 182.573 984.151 183.375 981.891 183.375C979.818 183.375 978.219 182.479 977.094 180.688ZM977.031 174.234V176.469C977.031 177.792 977.458 178.917 978.312 179.844C979.177 180.76 980.271 181.219 981.594 181.219C983.146 181.219 984.359 180.625 985.234 179.438C986.12 178.25 986.562 176.599 986.562 174.484C986.562 172.703 986.151 171.307 985.328 170.297C984.505 169.286 983.391 168.781 981.984 168.781C980.495 168.781 979.297 169.302 978.391 170.344C977.484 171.375 977.031 172.672 977.031 174.234ZM999.969 183.375C997.604 183.375 995.714 182.63 994.297 181.141C992.891 179.641 992.188 177.656 992.188 175.188C992.188 172.5 992.922 170.401 994.391 168.891C995.859 167.38 997.844 166.625 1000.34 166.625C1002.73 166.625 1004.59 167.359 1005.92 168.828C1007.27 170.297 1007.94 172.333 1007.94 174.938C1007.94 177.49 1007.21 179.536 1005.77 181.078C1004.33 182.609 1002.4 183.375 999.969 183.375ZM1000.16 168.781C998.51 168.781 997.208 169.344 996.25 170.469C995.292 171.583 994.812 173.125 994.812 175.094C994.812 176.99 995.297 178.484 996.266 179.578C997.234 180.672 998.531 181.219 1000.16 181.219C1001.81 181.219 1003.08 180.682 1003.97 179.609C1004.86 178.536 1005.31 177.01 1005.31 175.031C1005.31 173.031 1004.86 171.49 1003.97 170.406C1003.08 169.323 1001.81 168.781 1000.16 168.781ZM1011.06 182.422V179.672C1012.46 180.703 1013.99 181.219 1015.67 181.219C1017.92 181.219 1019.05 180.469 1019.05 178.969C1019.05 178.542 1018.95 178.182 1018.75 177.891C1018.56 177.589 1018.3 177.323 1017.97 177.094C1017.65 176.865 1017.26 176.661 1016.81 176.484C1016.38 176.297 1015.9 176.104 1015.39 175.906C1014.68 175.625 1014.06 175.344 1013.52 175.062C1012.98 174.771 1012.54 174.448 1012.17 174.094C1011.82 173.729 1011.55 173.318 1011.36 172.859C1011.18 172.401 1011.09 171.865 1011.09 171.25C1011.09 170.5 1011.27 169.839 1011.61 169.266C1011.95 168.682 1012.41 168.198 1012.98 167.812C1013.56 167.417 1014.21 167.12 1014.94 166.922C1015.68 166.724 1016.44 166.625 1017.22 166.625C1018.6 166.625 1019.84 166.865 1020.94 167.344V169.938C1019.76 169.167 1018.41 168.781 1016.88 168.781C1016.4 168.781 1015.96 168.839 1015.58 168.953C1015.19 169.057 1014.86 169.208 1014.58 169.406C1014.31 169.604 1014.09 169.844 1013.94 170.125C1013.79 170.396 1013.72 170.698 1013.72 171.031C1013.72 171.448 1013.79 171.797 1013.94 172.078C1014.09 172.359 1014.32 172.609 1014.61 172.828C1014.9 173.047 1015.26 173.245 1015.67 173.422C1016.09 173.599 1016.56 173.792 1017.09 174C1017.8 174.271 1018.44 174.552 1019 174.844C1019.56 175.125 1020.04 175.448 1020.44 175.812C1020.83 176.167 1021.14 176.578 1021.34 177.047C1021.56 177.516 1021.67 178.073 1021.67 178.719C1021.67 179.51 1021.49 180.198 1021.14 180.781C1020.8 181.365 1020.33 181.849 1019.75 182.234C1019.17 182.62 1018.49 182.906 1017.73 183.094C1016.97 183.281 1016.18 183.375 1015.34 183.375C1013.7 183.375 1012.27 183.057 1011.06 182.422ZM1026.94 162.938C1026.48 162.938 1026.09 162.781 1025.77 162.469C1025.44 162.156 1025.28 161.76 1025.28 161.281C1025.28 160.802 1025.44 160.406 1025.77 160.094C1026.09 159.771 1026.48 159.609 1026.94 159.609C1027.41 159.609 1027.8 159.771 1028.12 160.094C1028.46 160.406 1028.62 160.802 1028.62 161.281C1028.62 161.74 1028.46 162.13 1028.12 162.453C1027.8 162.776 1027.41 162.938 1026.94 162.938ZM1028.19 183H1025.62V167H1028.19V183ZM1040.8 182.844C1040.19 183.177 1039.4 183.344 1038.41 183.344C1035.6 183.344 1034.2 181.781 1034.2 178.656V169.188H1031.45V167H1034.2V163.094L1036.77 162.266V167H1040.8V169.188H1036.77V178.203C1036.77 179.276 1036.95 180.042 1037.31 180.5C1037.68 180.958 1038.28 181.188 1039.12 181.188C1039.77 181.188 1040.33 181.01 1040.8 180.656V182.844ZM1045.53 162.938C1045.07 162.938 1044.68 162.781 1044.36 162.469C1044.04 162.156 1043.88 161.76 1043.88 161.281C1043.88 160.802 1044.04 160.406 1044.36 160.094C1044.68 159.771 1045.07 159.609 1045.53 159.609C1046 159.609 1046.4 159.771 1046.72 160.094C1047.05 160.406 1047.22 160.802 1047.22 161.281C1047.22 161.74 1047.05 162.13 1046.72 162.453C1046.4 162.776 1046 162.938 1045.53 162.938ZM1046.78 183H1044.22V167H1046.78V183ZM1064.55 167L1058.17 183H1055.66L1049.59 167H1052.41L1056.47 178.625C1056.77 179.479 1056.96 180.224 1057.03 180.859H1057.09C1057.2 180.057 1057.36 179.333 1057.59 178.688L1061.84 167H1064.55ZM1080.17 175.641H1068.88C1068.92 177.422 1069.4 178.797 1070.31 179.766C1071.23 180.734 1072.49 181.219 1074.09 181.219C1075.9 181.219 1077.55 180.625 1079.06 179.438V181.844C1077.66 182.865 1075.8 183.375 1073.48 183.375C1071.22 183.375 1069.45 182.651 1068.16 181.203C1066.86 179.745 1066.22 177.698 1066.22 175.062C1066.22 172.573 1066.92 170.547 1068.33 168.984C1069.74 167.411 1071.5 166.625 1073.59 166.625C1075.69 166.625 1077.31 167.302 1078.45 168.656C1079.6 170.01 1080.17 171.891 1080.17 174.297V175.641ZM1077.55 173.469C1077.54 171.99 1077.18 170.839 1076.47 170.016C1075.77 169.193 1074.8 168.781 1073.55 168.781C1072.34 168.781 1071.31 169.214 1070.47 170.078C1069.62 170.943 1069.1 172.073 1068.91 173.469H1077.55ZM1100.75 161.562C1100.25 161.281 1099.68 161.141 1099.05 161.141C1097.26 161.141 1096.36 162.271 1096.36 164.531V167H1100.11V169.188H1096.36V183H1093.81V169.188H1091.08V167H1093.81V164.406C1093.81 162.729 1094.3 161.406 1095.27 160.438C1096.23 159.458 1097.44 158.969 1098.89 158.969C1099.67 158.969 1100.29 159.062 1100.75 159.25V161.562ZM1115.73 175.641H1104.44C1104.48 177.422 1104.96 178.797 1105.88 179.766C1106.79 180.734 1108.05 181.219 1109.66 181.219C1111.46 181.219 1113.11 180.625 1114.62 179.438V181.844C1113.22 182.865 1111.36 183.375 1109.05 183.375C1106.79 183.375 1105.01 182.651 1103.72 181.203C1102.43 179.745 1101.78 177.698 1101.78 175.062C1101.78 172.573 1102.48 170.547 1103.89 168.984C1105.31 167.411 1107.06 166.625 1109.16 166.625C1111.25 166.625 1112.87 167.302 1114.02 168.656C1115.16 170.01 1115.73 171.891 1115.73 174.297V175.641ZM1113.11 173.469C1113.1 171.99 1112.74 170.839 1112.03 170.016C1111.33 169.193 1110.36 168.781 1109.11 168.781C1107.9 168.781 1106.88 169.214 1106.03 170.078C1105.19 170.943 1104.67 172.073 1104.47 173.469H1113.11ZM1132.48 175.641H1121.19C1121.23 177.422 1121.71 178.797 1122.62 179.766C1123.54 180.734 1124.8 181.219 1126.41 181.219C1128.21 181.219 1129.86 180.625 1131.38 179.438V181.844C1129.97 182.865 1128.11 183.375 1125.8 183.375C1123.54 183.375 1121.76 182.651 1120.47 181.203C1119.18 179.745 1118.53 177.698 1118.53 175.062C1118.53 172.573 1119.23 170.547 1120.64 168.984C1122.06 167.411 1123.81 166.625 1125.91 166.625C1128 166.625 1129.62 167.302 1130.77 168.656C1131.91 170.01 1132.48 171.891 1132.48 174.297V175.641ZM1129.86 173.469C1129.85 171.99 1129.49 170.839 1128.78 170.016C1128.08 169.193 1127.11 168.781 1125.86 168.781C1124.65 168.781 1123.62 169.214 1122.78 170.078C1121.94 170.943 1121.42 172.073 1121.22 173.469H1129.86ZM1150.03 183H1147.47V180.281H1147.41C1146.22 182.344 1144.39 183.375 1141.91 183.375C1139.9 183.375 1138.29 182.661 1137.08 181.234C1135.88 179.797 1135.28 177.844 1135.28 175.375C1135.28 172.729 1135.95 170.609 1137.28 169.016C1138.61 167.422 1140.39 166.625 1142.61 166.625C1144.81 166.625 1146.41 167.49 1147.41 169.219H1147.47V159.312H1150.03V183ZM1147.47 175.766V173.406C1147.47 172.115 1147.04 171.021 1146.19 170.125C1145.33 169.229 1144.25 168.781 1142.94 168.781C1141.38 168.781 1140.15 169.354 1139.25 170.5C1138.35 171.646 1137.91 173.229 1137.91 175.25C1137.91 177.094 1138.33 178.552 1139.19 179.625C1140.05 180.688 1141.21 181.219 1142.66 181.219C1144.08 181.219 1145.24 180.703 1146.12 179.672C1147.02 178.641 1147.47 177.339 1147.47 175.766ZM1157.84 180.688H1157.78V183H1155.22V159.312H1157.78V169.812H1157.84C1159.1 167.688 1160.95 166.625 1163.38 166.625C1165.43 166.625 1167.03 167.344 1168.19 168.781C1169.35 170.208 1169.94 172.125 1169.94 174.531C1169.94 177.208 1169.29 179.354 1167.98 180.969C1166.68 182.573 1164.9 183.375 1162.64 183.375C1160.53 183.375 1158.93 182.479 1157.84 180.688ZM1157.78 174.234V176.469C1157.78 177.792 1158.21 178.917 1159.06 179.844C1159.93 180.76 1161.02 181.219 1162.34 181.219C1163.9 181.219 1165.11 180.625 1165.98 179.438C1166.87 178.25 1167.31 176.599 1167.31 174.484C1167.31 172.703 1166.9 171.307 1166.08 170.297C1165.26 169.286 1164.14 168.781 1162.73 168.781C1161.24 168.781 1160.05 169.302 1159.14 170.344C1158.23 171.375 1157.78 172.672 1157.78 174.234ZM1185.48 183H1182.92V180.5H1182.86C1181.74 182.417 1180.1 183.375 1177.94 183.375C1176.34 183.375 1175.09 182.953 1174.19 182.109C1173.29 181.266 1172.84 180.146 1172.84 178.75C1172.84 175.76 1174.6 174.021 1178.12 173.531L1182.92 172.859C1182.92 170.141 1181.82 168.781 1179.62 168.781C1177.7 168.781 1175.96 169.438 1174.41 170.75V168.125C1175.98 167.125 1177.79 166.625 1179.84 166.625C1183.6 166.625 1185.48 168.615 1185.48 172.594V183ZM1182.92 174.906L1179.06 175.438C1177.88 175.604 1176.98 175.901 1176.38 176.328C1175.77 176.745 1175.47 177.49 1175.47 178.562C1175.47 179.344 1175.74 179.984 1176.3 180.484C1176.86 180.974 1177.6 181.219 1178.53 181.219C1179.8 181.219 1180.85 180.776 1181.67 179.891C1182.51 178.995 1182.92 177.865 1182.92 176.5V174.906ZM1201.22 182.266C1199.99 183.005 1198.53 183.375 1196.84 183.375C1194.56 183.375 1192.72 182.635 1191.31 181.156C1189.92 179.667 1189.22 177.74 1189.22 175.375C1189.22 172.74 1189.97 170.625 1191.48 169.031C1192.99 167.427 1195.01 166.625 1197.53 166.625C1198.94 166.625 1200.18 166.885 1201.25 167.406V170.031C1200.06 169.198 1198.79 168.781 1197.44 168.781C1195.8 168.781 1194.46 169.37 1193.41 170.547C1192.36 171.714 1191.84 173.25 1191.84 175.156C1191.84 177.031 1192.33 178.51 1193.31 179.594C1194.3 180.677 1195.62 181.219 1197.28 181.219C1198.68 181.219 1199.99 180.755 1201.22 179.828V182.266ZM1218.38 183H1214.78L1207.72 175.312H1207.66V183H1205.09V159.312H1207.66V174.328H1207.72L1214.44 167H1217.8L1210.38 174.719L1218.38 183Z" fill="#E0E0E0"/>
</g>
<defs>
<filter id="filter0_f_4_31" x="64" y="24" width="227" height="227" filterUnits="userSpaceOnUse" color-interpolation-filters="sRGB">
<feFlood flood-opacity="0" result="BackgroundImageFix"/>
<feBlend mode="normal" in="SourceGraphic" in2="BackgroundImageFix" result="shape"/>
<feGaussianBlur stdDeviation="13" result="effect1_foregroundBlur_4_31"/>
</filter>
<filter id="filter1_d_4_31" x="90" y="50" width="175" height="175" filterUnits="userSpaceOnUse" color-interpolation-filters="sRGB">
<feFlood flood-opacity="0" result="BackgroundImageFix"/>
<feColorMatrix in="SourceAlpha" type="matrix" values="0 0 0 0 0 0 0 0 0 0 0 0 0 0 0 0 0 0 127 0" result="hardAlpha"/>
<feOffset/>
<feColorMatrix type="matrix" values="0 0 0 0 0 0 0 0 0 0 0 0 0 0 0 0 0 0 1 0"/>
<feBlend mode="normal" in2="BackgroundImageFix" result="effect1_dropShadow_4_31"/>
<feBlend mode="normal" in="SourceGraphic" in2="effect1_dropShadow_4_31" result="shape"/>
</filter>
<filter id="filter2_f_4_31" x="1080" y="94" width="116" height="151" filterUnits="userSpaceOnUse" color-interpolation-filters="sRGB">
<feFlood flood-opacity="0" result="BackgroundImageFix"/>
<feBlend mode="normal" in="SourceGraphic" in2="BackgroundImageFix" result="shape"/>
<feGaussianBlur stdDeviation="4" result="effect1_foregroundBlur_4_31"/>
</filter>
<linearGradient id="paint0_linear_4_31" x1="544" y1="-123.5" x2="495.908" y2="337.58" gradientUnits="userSpaceOnUse">
<stop stop-color="#667EEA"/>
<stop offset="0.656358" stop-color="#7452AC"/>
<stop offset="1" stop-color="#764BA2"/>
</linearGradient>
<clipPath id="clip0_4_31">
<rect width="1500" height="300" fill="white"/>
</clipPath>
</defs>
</svg>
